<svg width="526" height="93" viewBox="0 0 526 93" fill="none" xmlns="http://www.w3.org/2000/svg">
<g clip-path="url(#clip0_72_2)">
<path d="M66.5621 36.0723V46.0715C66.5621 51.0936 62.5108 55.1534 57.4991 55.1534H23.0327V78.3245C23.0327 85.1961 17.4658 90.7746 10.6085 90.7746H0V2.33063H68.6628V12.6155C68.6628 17.4873 64.7315 21.4268 59.8699 21.4268H23.0327V36.0723H66.5621Z" fill="#235FD9"/>
<path d="M80.1266 2.33063H96.137C100.023 2.33063 103.174 5.48827 103.174 9.38269V71.6934H135.06C140.147 71.6934 144.258 75.8134 144.258 80.9107V90.7746H80.1266V2.33063Z" fill="#235FD9"/>
<path d="M151.295 46.3872C151.295 39.6509 152.526 33.4409 155.002 27.7421C157.477 22.0433 160.869 17.1415 165.19 13.0365C169.511 8.93161 174.628 5.72886 180.525 3.44333C186.437 1.1578 192.859 0 199.791 0C206.724 0 213.266 1.14276 219.178 3.44333C225.09 5.7439 230.192 8.93161 234.513 13.0365C238.834 17.1415 242.196 22.0433 244.596 27.7421C246.997 33.4409 248.198 39.6509 248.198 46.3872C248.198 53.1235 246.997 59.4388 244.596 65.1376C242.196 70.8364 238.834 75.7533 234.513 79.9033C230.192 84.0383 225.075 87.2711 219.178 89.5567C213.266 91.8422 206.814 93 199.791 93C192.769 93 186.422 91.8572 180.525 89.5567C174.613 87.2561 169.511 84.0383 165.19 79.9033C160.869 75.7533 157.477 70.8364 155.002 65.1376C152.526 59.4388 151.295 53.1837 151.295 46.3872ZM174.328 46.3872C174.328 50.4621 174.943 54.1761 176.159 57.5442C177.374 60.9124 179.1 63.8144 181.305 66.2503C183.526 68.6862 186.197 70.5958 189.333 71.9641C192.469 73.3324 195.965 74.0241 199.791 74.0241C203.618 74.0241 207.114 73.3475 210.25 71.9641C213.386 70.5958 216.072 68.6862 218.278 66.2503C220.498 63.8144 222.209 60.9124 223.424 57.5442C224.64 54.1761 225.255 50.4621 225.255 46.3872C225.255 42.3124 224.64 38.839 223.424 35.5159C222.209 32.1929 220.483 29.3059 218.278 26.855C216.057 24.4191 213.386 22.5095 210.25 21.1411C207.114 19.7728 203.618 19.0812 199.791 19.0812C195.965 19.0812 192.469 19.7728 189.333 21.1411C186.197 22.5095 183.511 24.4191 181.305 26.855C179.085 29.2909 177.374 32.1779 176.159 35.5159C174.943 38.839 174.328 42.4778 174.328 46.3872Z" fill="#235FD9"/>
<path d="M257.771 46.4925C257.771 39.681 259.001 33.4409 261.477 27.7421C263.953 22.0433 267.344 17.1415 271.665 13.0365C275.987 8.93161 281.104 5.72886 287 3.44333C292.912 1.1578 299.26 0 306.042 0C315.195 0 323.102 1.86451 329.735 5.60857C336.382 9.35263 342.354 14.871 347.681 22.1937L338.753 29.6968C335.587 32.3583 330.92 31.9072 328.219 28.7646C326.404 26.6595 324.378 24.8251 322.157 23.2914C317.986 20.4044 312.794 18.9609 306.597 18.9609C302.756 18.9609 299.245 19.6676 296.079 21.066C292.897 22.4794 290.197 24.4191 287.946 26.9001C285.695 29.3811 283.939 32.2981 282.679 35.6663C281.419 39.0344 280.803 42.6432 280.803 46.4925C280.803 50.3418 281.419 53.9205 282.634 57.2585C283.849 60.5966 285.605 63.4986 287.901 65.9646C290.182 68.4456 292.942 70.3853 296.154 71.7837C299.365 73.1971 302.921 73.8888 306.837 73.8888C310.003 73.8888 312.869 73.5129 315.42 72.7761C317.971 72.0393 320.297 70.9567 322.397 69.5583C324.498 68.1599 326.419 66.4458 328.159 64.4459L328.204 64.3858C331.145 60.9876 336.307 60.6568 339.668 63.634L347.801 70.8815C342.774 77.9185 336.922 83.3467 330.245 87.196C323.568 91.0453 315.495 92.9699 306.042 92.9699C299.245 92.9699 292.897 91.8272 287 89.5266C281.089 87.226 275.987 84.0383 271.665 79.9334C267.344 75.8285 263.953 70.9266 261.477 65.2278C259.001 59.529 257.771 53.2739 257.771 46.4774V46.4925Z" fill="#235FD9"/>
<path d="M408.061 86.7599L384.128 53.2588V83.8729C384.128 87.6921 381.037 90.7746 377.241 90.7746H361.095V2.33063H373.984C379.581 2.33063 384.128 6.88665 384.128 12.4952V35.6212L406.695 7.59336C409.366 4.27032 413.403 2.33063 417.679 2.33063H436.3L402.194 44.7182L436.3 90.7746H415.863C412.772 90.7746 409.861 89.286 408.061 86.7599Z" fill="#235FD9"/>
<path d="M470.301 9.45789L483.356 31.5163L496.35 9.54811C499.006 5.06727 503.808 2.31561 509.014 2.31561H525.985L494.76 53.8152V82.264C494.76 86.9554 490.963 90.7596 486.282 90.7596H471.727V53.4694L440.727 2.33065H457.817C462.949 2.33065 467.691 5.0372 470.301 9.45789Z" fill="#235FD9"/>
</g>
<defs>
<clipPath id="clip0_72_2">
<rect width="526" height="93" fill="white"/>
</clipPath>
</defs>
</svg>
