<?xml version="1.0" encoding="iso-8859-1"?>
<!-- Generator: Adobe Illustrator 27.9.0, SVG Export Plug-In . SVG Version: 6.00 Build 0)  -->
<svg version="1.1" id="&#xB808;&#xC774;&#xC5B4;_1" xmlns="http://www.w3.org/2000/svg" xmlns:xlink="http://www.w3.org/1999/xlink"
	 x="0px" y="0px" viewBox="0 0 24 24" style="enable-background:new 0 0 24 24;" xml:space="preserve">
<g>
	<circle style="fill:#FCFCFC;" cx="12" cy="12" r="10.5"/>
	<path style="fill:#D9DBDD;" d="M12,2c5.514,0,10,4.486,10,10s-4.486,10-10,10S2,17.514,2,12S6.486,2,12,2 M12,1
		C5.925,1,1,5.925,1,12s4.925,11,11,11s11-4.925,11-11S18.075,1,12,1L12,1z"/>
</g>
<g>
	<path style="fill:none;stroke:#AEAFB5;stroke-linecap:round;stroke-miterlimit:10;" d="M16.801,13.584
		c-0.598,2.051-2.493,3.55-4.737,3.55c-2.725,0-4.934-2.209-4.934-4.934s2.209-4.934,4.934-4.934c1.858,0,3.476,1.027,4.318,2.545"
		/>
	<polyline style="fill:none;stroke:#AEAFB5;stroke-linecap:round;stroke-miterlimit:10;" points="16.87,6.867 16.414,9.953 
		13.328,9.497 	"/>
</g>
</svg>
